<?xml version="1.0" standalone="no"?>
<!DOCTYPE svg PUBLIC "-//W3C//DTD SVG 20010904//EN"
 "http://www.w3.org/TR/2001/REC-SVG-20010904/DTD/svg10.dtd">
<svg version="1.0" xmlns="http://www.w3.org/2000/svg"
 width="700.000000pt" height="700.000000pt" viewBox="0 0 700.000000 700.000000"
 preserveAspectRatio="xMidYMid meet">
<metadata>
Created by potrace 1.14, written by Peter Selinger 2001-2017
</metadata>
<g transform="translate(0.000000,700.000000) scale(0.100000,-0.100000)"
fill="#000000" stroke="none">
<path d="M2095 4900 l-1400 -1400 1403 -1403 1402 -1402 1402 1402 1403 1403
-1400 1400 c-770 770 -1402 1400 -1405 1400 -3 0 -635 -630 -1405 -1400z
m1671 205 c240 -42 471 -161 590 -304 187 -224 235 -566 123 -874 -64 -178
-176 -310 -449 -531 -178 -145 -269 -237 -306 -312 -27 -54 -29 -69 -32 -191
l-4 -133 -309 0 -309 0 0 133 c1 145 16 251 50 339 46 123 177 283 343 419
156 128 304 275 332 329 43 84 57 153 53 259 -3 88 -6 102 -33 146 -37 60 -95
106 -172 136 -49 19 -76 23 -173 22 -174 -1 -326 -46 -618 -183 -62 -29 -114
-51 -116 -49 -2 2 -56 118 -120 258 -87 190 -113 257 -105 267 21 25 276 143
395 183 128 42 278 76 404 90 130 15 360 12 456 -4z m-217 -2794 c169 -53 251
-154 267 -333 12 -140 -28 -264 -108 -333 -165 -142 -425 -153 -589 -24 -86
68 -116 140 -126 300 -13 207 68 330 255 390 79 25 221 25 301 0z"/>
</g>
</svg>
