<svg xmlns="http://www.w3.org/2000/svg" width="100" height="100" fill="none">
  <rect width="90" height="90" x="5" y="5" fill="#fff" stroke="#fff" stroke-width="10" rx="15" />
  <path fill="#191919" d="m50 10 40 40-40 40-40-40 40-40Zm2.7 48.7c0-1.4.3-2.6 1-3.5.5-.8 1.8-2 3.7-3.5 1.7-1.3 3-2.5 4.2-3.7a13 13 0 0 0 3.3-9c0-3.8-1.4-6.8-4-9a17 17 0 0 0-11-3.2A27.9 27.9 0 0 0 35.6 31l3.5 7.6c1.9-1 3.7-1.8 5.5-2.5 1.8-.6 3.5-1 5-1a6 6 0 0 1 4.1 1.3 4 4 0 0 1 1.3 3.2 7 7 0 0 1-1.1 4c-.8 1-2.1 2.3-4 3.8a20.6 20.6 0 0 0-4.7 5c-1 1.6-1.4 3.5-1.4 5.8v2.5h9v-2Zm-10 13.7c0 2 .5 3.5 1.7 4.4 1.1 1 2.6 1.4 4.2 1.4s3-.5 4.1-1.4c1.3-.9 1.9-2.3 1.9-4.4 0-2.1-.6-3.6-1.9-4.5a6.6 6.6 0 0 0-4-1.3 7 7 0 0 0-4.3 1.3c-1.2.9-1.8 2.4-1.8 4.5Z" />
</svg>
